<svg width="198" height="31" viewBox="0 0 198 31" fill="none" xmlns="http://www.w3.org/2000/svg">
<path d="M11.68 13.63L13.94 11.71H23.54L22.86 15.55H30.54L31.9 7.87H10.78L3.99996 13.63L0.959961 30.91H27.84L28.52 27.07H9.31996L9.99996 23.23H29.2L29.88 19.39H10.68L11.68 13.63Z" fill="#1A9DD2"/>
<path d="M50.2799 27.07H38.7599L43.4999 0.190002H35.8199L30.3999 30.91H57.2799L58.6399 23.23H50.9599L50.2799 27.07Z" fill="#1A9DD2"/>
<path d="M79.1599 19.39H73.3998L72.7198 23.23H82.3199L89.0798 17.47L90.7798 7.87H69.6599L62.8798 13.63L59.8398 30.91H86.7198L87.3998 27.07H68.1998L70.5598 13.63L72.8198 11.71H82.4198L81.3998 17.47L79.1599 19.39Z" fill="#1A9DD2"/>
<path d="M112.54 7.87L110.18 21.31L103.4 27.07H97.6398L101.02 7.87H93.3398L89.2798 30.91H106.56L117.86 21.31L120.22 7.87H112.54Z" fill="#1A9DD2"/>
<path d="M128.54 7.87L121.76 13.63L118.72 30.91H134.08L134.76 27.07H127.08L129.44 13.63L131.7 11.71H141.3L137.92 30.91H145.6L149.66 7.87H128.54Z" fill="#1A9DD2"/>
<path d="M156.85 25.15L159.22 11.71H166.9L167.57 7.87H159.9L161.25 0.190002H153.57L149.18 25.15L153.91 30.91H163.52L164.19 27.07H158.44L156.85 25.15Z" fill="#1A9DD2"/>
<path d="M185.4 19.39H179.63L178.96 23.23H188.56L195.31 17.47L197.02 7.87H175.9L169.12 13.63L166.07 30.91H192.96L193.63 27.07H174.44L176.79 13.63L179.06 11.71H188.66L187.63 17.47L185.4 19.39Z" fill="#1A9DD2"/>
</svg>
